<?xml version="1.0" standalone="no"?>
<!DOCTYPE svg PUBLIC "-//W3C//DTD SVG 20010904//EN"
 "http://www.w3.org/TR/2001/REC-SVG-20010904/DTD/svg10.dtd">
<svg version="1.0" xmlns="http://www.w3.org/2000/svg"
 width="128.000000pt" height="128.000000pt" viewBox="0 0 128.000000 128.000000"
 preserveAspectRatio="xMidYMid meet">

<g transform="translate(0.000000,128.000000) scale(0.100000,-0.100000)"
fill="#000000" stroke="none">
<path d="M624 1036 c-27 -13 -66 -42 -86 -65 -28 -33 -42 -41 -69 -41 -73 -1
-155 -59 -190 -135 -33 -70 -30 -74 64 -77 81 -3 82 -3 85 -30 l3 -28 -86 0
c-85 0 -86 0 -80 -22 4 -13 15 -36 24 -53 l17 -30 187 -3 187 -2 0 -30 0 -30
-137 -1 c-181 0 -143 -14 65 -23 l163 -7 15 37 c28 66 0 127 -69 153 -16 6
-60 11 -98 11 l-69 0 0 30 0 30 83 0 c66 0 92 -5 127 -22 76 -39 114 -121 93
-202 l-11 -39 83 6 c101 7 140 22 183 72 42 47 52 74 52 134 0 98 -78 188
-174 198 -34 4 -46 10 -46 22 0 9 -12 35 -26 56 -70 106 -182 141 -290 91z"/>
</g>
</svg>
